<svg width="53" height="52" viewBox="0 0 53 52" fill="none" xmlns="http://www.w3.org/2000/svg">
<circle cx="28" cy="27" r="15" fill="#A78BFA"/>
<rect x="2.27273" y="22.4546" width="4.54545" height="4.54545" rx="2.27273" fill="#A78BFA"/>
<path d="M0 31.5455C0 29.2861 1.83156 27.4546 4.09091 27.4546H5C7.25935 27.4546 9.09091 29.2861 9.09091 31.5455H0Z" fill="#A78BFA"/>
<rect x="15.2727" width="4.54545" height="4.54545" rx="2.27273" fill="#A78BFA"/>
<path d="M13 9.09091C13 6.83156 14.8316 5 17.0909 5H18C20.2593 5 22.0909 6.83156 22.0909 9.09091H13Z" fill="#A78BFA"/>
<path d="M5.41895 32C7.04316 39.3685 12.1813 45.4171 18.9863 48.3008C24.4801 50.9883 30.7909 51.1033 37.3486 49.7539C37.9875 49.6224 38.6289 49.4767 39.2725 49.3184C35.8852 51.0325 32.0558 52 28 52C15.9053 52 5.8174 43.4111 3.50098 32H5.41895ZM28 2C41.8071 2 53 13.1929 53 27C53 34.6275 49.5827 41.4554 44.1973 46.041C40.0024 48.0843 35.8486 49.4808 31.6074 49.8438C42.6655 48.1114 51.125 38.5444 51.125 27C51.125 14.2284 40.7716 3.875 28 3.875C25.9248 3.875 23.9133 4.14749 22 4.66016V2.72363C23.922 2.25017 25.9318 2 28 2ZM12 10.3057C8.75884 13.4135 6.42061 17.4558 5.41895 22H3.50098C4.65167 16.3315 7.72048 11.3598 12 7.79102V10.3057Z" fill="#A78BFA"/>
</svg>
